<svg width="16" height="15" viewBox="0 0 16 15" fill="none" xmlns="http://www.w3.org/2000/svg">
<rect x="0.5" y="-0.5" width="15" height="14" transform="matrix(1 0 0 -1 0 14)" fill="white" stroke="#E2E2E2"/>
<path d="M5.52899 9.53167C5.23684 9.8253 4.76316 9.8253 4.47101 9.53167C4.17886 9.23804 4.17886 8.76196 4.47101 8.46833L5.52899 9.53167ZM4.47101 8.46833L7.74446 5.17828L8.80243 6.24162L5.52899 9.53167L4.47101 8.46833Z" fill="#A1A1A1"/>
<path d="M11.529 8.46832C11.8211 8.76196 11.8211 9.23803 11.529 9.53166C11.2368 9.8253 10.7632 9.8253 10.471 9.53166L11.529 8.46832ZM8.25554 5.17828L11.529 8.46832L10.471 9.53166L7.19757 6.24162L8.25554 5.17828Z" fill="#A1A1A1"/>
</svg>
