<svg width="36" height="36" viewBox="0 0 36 36" fill="none" xmlns="http://www.w3.org/2000/svg">
<circle cx="18" cy="18" r="18" fill="#2E84F5"/>
<mask id="mask0_755_16863" style="mask-type:alpha" maskUnits="userSpaceOnUse" x="0" y="0" width="36" height="36">
<circle cx="18" cy="18" r="18" fill="#2E84F5"/>
</mask>
<g mask="url(#mask0_755_16863)">
<path fill-rule="evenodd" clip-rule="evenodd" d="M7 9.66526C7 8.74559 7.74559 8 8.66526 8H13.661C16.4201 8 18.6568 10.2367 18.6568 12.9958V25.9015C18.6568 26.8213 17.9112 27.5668 16.9916 27.5668H8.66526C7.74559 27.5668 7 26.8213 7 25.9015V9.66526ZM8.66526 9.11017C8.35867 9.11017 8.11017 9.35867 8.11017 9.66526V25.9015C8.11017 26.2081 8.35867 26.4566 8.66526 26.4566H16.9916C17.2981 26.4566 17.5466 26.2081 17.5466 25.9015V12.9958C17.5466 10.8499 15.807 9.11017 13.661 9.11017H8.66526Z" fill="white"/>
<path fill-rule="evenodd" clip-rule="evenodd" d="M7 23.0567C7 22.7501 7.2485 22.5016 7.55509 22.5016H14.1468C16.6375 22.5016 18.6568 24.5209 18.6568 27.0117C18.6568 27.3183 18.4083 27.5668 18.1017 27.5668H7.55509C7.2485 27.5668 7 27.3183 7 27.0117V23.0567ZM8.11017 23.6118V26.4566H17.5015C17.2366 24.843 15.8355 23.6118 14.1468 23.6118H8.11017Z" fill="white"/>
<path fill-rule="evenodd" clip-rule="evenodd" d="M29.2037 9.66526C29.2037 8.74559 28.4581 8 27.5384 8H22.5427C19.7836 8 17.5469 10.2367 17.5469 12.9958V26.8729C17.5469 27.1795 17.7954 27.428 18.102 27.428C18.4085 27.428 18.657 27.1795 18.657 26.8729V12.9958C18.657 10.8499 20.3967 9.11017 22.5427 9.11017H27.5384C27.845 9.11017 28.0935 9.35867 28.0935 9.66526V15.7712C28.0935 16.0778 28.342 16.3263 28.6486 16.3263C28.9552 16.3263 29.2037 16.0778 29.2037 15.7712V9.66526Z" fill="white"/>
<path fill-rule="evenodd" clip-rule="evenodd" d="M21.5107 24.6444C21.5322 24.537 21.585 24.4383 21.6625 24.3608L27.1576 18.8657C27.8079 18.2154 28.8623 18.2154 29.5126 18.8657C30.1629 19.516 30.1629 20.5704 29.5126 21.2207L24.0176 26.7158C23.94 26.7933 23.8413 26.8461 23.7339 26.8676L21.7714 27.2602C21.5894 27.2965 21.4012 27.2396 21.27 27.1083C21.1387 26.9771 21.0818 26.7889 21.1182 26.6069L21.5107 24.6444ZM22.5663 25.0269L22.3701 26.0082L23.3514 25.812L28.7276 20.4357C28.9444 20.2189 28.9444 19.8675 28.7276 19.6507C28.5108 19.434 28.1594 19.434 27.9426 19.6507L22.5663 25.0269Z" fill="white"/>
</g>
</svg>
