<svg width="100" height="100" viewBox="0 0 100 100" fill="none" xmlns="http://www.w3.org/2000/svg">
<circle opacity="0.5" cx="50" cy="50" r="50" fill="white"/>
<g clip-path="url(#clip0_318_3582)">
<path d="M17.9492 54.1229V37.9086C17.9492 35.3862 19.9943 33.3465 22.5113 33.3465L34.5975 33.3302L49.7811 44.6352C50.9148 45.4814 51.1481 47.0871 50.3072 48.2209C49.461 49.3546 47.8553 49.5933 46.7216 48.7471L34.2991 39.5089" fill="white"/>
<path d="M17.9492 54.1229V37.9086C17.9492 35.3862 19.9943 33.3465 22.5113 33.3465L34.5975 33.3302L49.7811 44.6352C50.9148 45.4814 51.1481 47.0871 50.3072 48.2209C49.461 49.3546 47.8553 49.5933 46.7216 48.7471L34.2991 39.5089" stroke="#000222" stroke-width="2" stroke-linejoin="round"/>
<path d="M31.7982 26.506C31.7982 29.0231 29.7586 31.0627 27.2415 31.0627C24.7245 31.0627 22.6848 29.0231 22.6848 26.506C22.6848 23.989 24.7245 21.9493 27.2415 21.9493C29.7586 21.9493 31.7982 23.989 31.7982 26.506Z" stroke="#000222" stroke-width="2" stroke-linejoin="round"/>
<path d="M21.8333 41.695V77.7581H27.144V59.157V77.7581H32.4601V41.695" fill="white"/>
<path d="M21.8333 41.695V77.7581H27.144V59.157V77.7581H32.4601V41.695" stroke="#000222" stroke-width="2" stroke-linejoin="round"/>
<path d="M80.0506 54.1229V37.9086C80.0506 35.3862 78.0055 33.3465 75.4884 33.3465L63.4077 33.3302L48.2242 44.6352C47.0904 45.4814 46.8571 47.0871 47.698 48.2209C48.5442 49.3546 50.1499 49.5933 51.2837 48.7471L63.7061 39.5089" fill="white"/>
<path d="M80.0506 54.1229V37.9086C80.0506 35.3862 78.0055 33.3465 75.4884 33.3465L63.4077 33.3302L48.2242 44.6352C47.0904 45.4814 46.8571 47.0871 47.698 48.2209C48.5442 49.3546 50.1499 49.5933 51.2837 48.7471L63.7061 39.5089" stroke="#000222" stroke-width="2" stroke-linejoin="round"/>
<path d="M66.2014 26.506C66.2014 29.0231 68.2411 31.0627 70.7581 31.0627C73.2752 31.0627 75.3148 29.0231 75.3148 26.506C75.3148 23.989 73.2752 21.9493 70.7581 21.9493C68.2411 21.9493 66.2014 23.989 66.2014 26.506Z" stroke="#000222" stroke-width="2" stroke-linejoin="round"/>
<path d="M76.1664 41.695V77.7581H70.8503V59.157V77.7581H65.5396V41.695" fill="white"/>
<path d="M76.1664 41.695V77.7581H70.8503V59.157V77.7581H65.5396V41.695" stroke="#000222" stroke-width="2" stroke-linejoin="round"/>
<path d="M57.0664 57.3506V68.7532L52.9817 73.7438V61.2292L57.0664 57.3506Z" fill="#6CA9F8" stroke="#000222" stroke-width="2" stroke-linecap="round" stroke-linejoin="round"/>
<path d="M52.9818 61.137H39.2249V73.7438H52.9818V61.137Z" fill="#6CA9F8" stroke="#000222" stroke-width="2" stroke-linecap="round" stroke-linejoin="round"/>
<path d="M52.9818 61.1749H39.2249L43.315 57.3506H57.0665L52.9818 61.1749Z" fill="#6CA9F8" stroke="#000222" stroke-width="2" stroke-linecap="round" stroke-linejoin="round"/>
</g>
<defs>
<clipPath id="clip0_318_3582">
<rect width="64" height="57.7074" fill="white" transform="translate(17 21)"/>
</clipPath>
</defs>
</svg>
