<svg width="100" height="100" viewBox="0 0 100 100" fill="none" xmlns="http://www.w3.org/2000/svg">
<circle opacity="0.5" cx="50" cy="50" r="50" fill="white"/>
<g clip-path="url(#clip0_318_3596)">
<path d="M21.3713 80.1249C18.9338 80.1249 16.9543 78.1455 16.9543 75.7079V44.8762C16.9543 47.3192 18.9338 49.2932 21.3713 49.2932H51.1452V80.1249H21.3713Z" fill="white" stroke="#000222" stroke-width="2" stroke-linecap="round" stroke-linejoin="round"/>
<path d="M16.9543 44.8762V44.32C16.9543 41.8824 18.9338 39.903 21.3713 39.903H51.1452V49.2932H21.3713C18.9338 49.2932 16.9543 47.3137 16.9543 44.8762Z" fill="#6CA9F8" stroke="#000222" stroke-width="2" stroke-linecap="round" stroke-linejoin="round"/>
<path d="M24.2178 80.1249V49.6476" stroke="#000222" stroke-width="2" stroke-linecap="round" stroke-linejoin="round"/>
<path d="M37.1036 69.9549L33.27 64.7418L29.4365 69.9549V59.6868V49.4132H33.27H37.1036V59.6868V69.9549Z" fill="white" stroke="#000222" stroke-width="2" stroke-linecap="round" stroke-linejoin="round"/>
<path d="M24.5342 44.1509H50.709" stroke="#000222" stroke-width="2" stroke-linecap="round" stroke-linejoin="round"/>
<path d="M70.9835 31.2435C70.9835 34.1009 68.6659 36.4185 65.8085 36.4185C62.9511 36.4185 60.6335 34.1009 60.6335 31.2435C60.6335 28.3861 62.9511 26.0685 65.8085 26.0685C68.6659 26.0685 70.9835 28.3861 70.9835 31.2435Z" fill="white" stroke="#000222" stroke-width="2" stroke-linecap="round" stroke-linejoin="round"/>
<path d="M70.7927 22.3168H60.8245V29.1495H70.7927V22.3168Z" fill="#6CA9F8" stroke="#000222" stroke-width="2" stroke-linecap="round" stroke-linejoin="round"/>
<path d="M65.8522 17.9707L65.8086 17.9543L55.7422 22.633L65.8086 26.0848L65.8522 26.0685L75.8804 22.633L65.8522 17.9707Z" fill="#6CA9F8" stroke="#000222" stroke-width="2" stroke-linecap="round" stroke-linejoin="round"/>
<path d="M83.0076 57.2547C82.615 55.1334 82.1624 53.2358 81.6716 51.5508C78.5143 40.5846 73.3611 38.1743 72.6795 37.9671C72.5159 37.9071 72.3523 37.869 72.1833 37.8526V37.7599H59.4067V37.8581C59.254 37.8799 59.0959 37.918 58.9432 37.9726C58.2615 38.1743 53.1084 40.5846 49.951 51.5562C49.4602 53.2412 49.0022 55.1389 48.615 57.2601C48.4024 58.4053 49.1003 59.5068 50.191 59.8231C50.2673 59.8449 50.3382 59.8613 50.42 59.8776C51.6415 60.1012 52.8139 59.2941 53.0429 58.0727C53.4083 56.0877 53.8227 54.3482 54.2699 52.8159C55.7258 47.8427 57.4763 45.1379 58.7414 43.7038C58.9813 43.4311 59.2049 43.2075 59.4067 43.0167V82.4589H65.8086H72.1778V42.9894C72.3905 43.1857 72.6195 43.4202 72.8758 43.7038C74.1409 45.1325 75.8914 47.8427 77.3473 52.8159C77.7945 54.3482 78.2144 56.0877 78.5797 58.0727C78.8033 59.2941 79.9757 60.1012 81.2027 59.8776C81.279 59.8613 81.3554 59.8449 81.4263 59.8231C82.5223 59.5014 83.2149 58.4053 83.0076 57.2601V57.2547Z" fill="white"/>
<path d="M65.8086 82.4589H59.4067V43.0167C59.2049 43.2075 58.9813 43.4311 58.7414 43.7038C57.4763 45.1379 55.7258 47.8427 54.2699 52.8159C53.8227 54.3482 53.4083 56.0877 53.0429 58.0727C52.8139 59.2941 51.6415 60.1012 50.42 59.8776C50.3382 59.8613 50.2673 59.8449 50.191 59.8231C49.1003 59.5068 48.4024 58.4053 48.615 57.2601C49.0022 55.1389 49.4602 53.2412 49.951 51.5562C53.1084 40.5846 58.2615 38.1743 58.9432 37.9726C59.0959 37.918 59.254 37.8799 59.4067 37.8581V37.7599H72.1833V37.8526C72.3523 37.869 72.5159 37.9071 72.6795 37.9671C73.3611 38.1743 78.5143 40.5846 81.6716 51.5508C82.1624 53.2358 82.615 55.1334 83.0076 57.2547V57.2601C83.2149 58.4053 82.5223 59.5014 81.4263 59.8231C81.3554 59.8449 81.279 59.8613 81.2027 59.8776C79.9757 60.1012 78.8033 59.2941 78.5797 58.0727C78.2144 56.0877 77.7945 54.3482 77.3473 52.8159C75.8914 47.8427 74.1409 45.1325 72.8758 43.7038C72.6195 43.4202 72.3905 43.1857 72.1778 42.9894V82.4589H65.8086ZM65.8086 82.4589V58.7052" stroke="#000222" stroke-width="2" stroke-linecap="round" stroke-linejoin="round"/>
<path d="M73.3503 23.3856V29.1113" stroke="#000222" stroke-width="2" stroke-linecap="round" stroke-linejoin="round"/>
</g>
<defs>
<clipPath id="clip0_318_3596">
<rect width="68" height="66.4132" fill="white" transform="translate(16 17)"/>
</clipPath>
</defs>
</svg>
